<svg width="210" height="145" viewBox="0 0 210 145" fill="none" xmlns="http://www.w3.org/2000/svg">
<circle cx="105" cy="50" r="50" fill="#8657D3"/>
<circle cx="105" cy="50" r="42.8571" fill="white"/>
<path fill-rule="evenodd" clip-rule="evenodd" d="M86.9048 24.2857H113.789H113.918L113.918 24.2863C120.997 24.3552 126.714 30.0626 126.714 37.0931C126.714 42.0125 123.915 46.2842 119.809 48.4295C126.734 49.1089 132.143 54.8979 132.143 61.9386C132.143 69.0068 126.692 74.8133 119.728 75.4555L119.735 75.5152H86.9048V24.2857Z" fill="url(#paint0_linear_177_130)"/>
<path d="M187.998 134.989L186.642 128.715L201.649 112.245H209.364L187.998 134.989ZM183.208 144.539V112.245H189.567V144.539H183.208ZM202.454 144.539L191.347 128.484L195.714 124.378L210 144.539H202.454Z" fill="#8657D3"/>
<path d="M153.287 144.539V139.833L169.523 116.258L171.431 118.657H154.389V112.245H176.476V116.904L160.324 140.525L158.374 138.357H176.942V144.539H153.287Z" fill="#8657D3"/>
<path d="M120.741 144.539V120.134H126.507L126.676 125.116L125.489 125.67C125.8 124.562 126.351 123.563 127.143 122.671C127.962 121.748 128.937 121.01 130.068 120.456C131.198 119.903 132.385 119.626 133.629 119.626C135.325 119.626 136.738 119.995 137.868 120.733C139.027 121.471 139.889 122.594 140.454 124.101C141.048 125.577 141.344 127.407 141.344 129.591V144.539H135.325V130.099C135.325 128.991 135.183 128.069 134.901 127.331C134.618 126.592 134.18 126.054 133.586 125.716C133.021 125.347 132.315 125.193 131.467 125.254C130.789 125.254 130.153 125.377 129.559 125.624C128.994 125.839 128.499 126.162 128.075 126.592C127.68 127.023 127.355 127.515 127.1 128.069C126.874 128.622 126.761 129.222 126.761 129.868V144.539H123.794C123.144 144.539 122.564 144.539 122.056 144.539C121.547 144.539 121.109 144.539 120.741 144.539Z" fill="black"/>
<path d="M108.292 144.539V120.133H114.312V144.539H108.292ZM111.26 115.105C110.101 115.105 109.197 114.797 108.547 114.182C107.897 113.567 107.572 112.69 107.572 111.552C107.572 110.507 107.897 109.661 108.547 109.015C109.225 108.338 110.129 108 111.26 108C112.418 108 113.323 108.323 113.973 108.969C114.623 109.584 114.948 110.445 114.948 111.552C114.948 112.629 114.609 113.49 113.93 114.136C113.28 114.782 112.39 115.105 111.26 115.105Z" fill="black"/>
<path d="M91.4269 145C89.1377 145 87.0887 144.462 85.2799 143.385C83.4994 142.278 82.0863 140.771 81.0407 138.864C80.0232 136.957 79.5145 134.774 79.5145 132.313C79.5145 129.853 80.0232 127.684 81.0407 125.808C82.0863 123.901 83.4994 122.394 85.2799 121.287C87.0887 120.18 89.1377 119.626 91.4269 119.626C93.6878 119.626 95.7085 120.18 97.489 121.287C99.2978 122.394 100.711 123.901 101.728 125.808C102.746 127.684 103.254 129.853 103.254 132.313C103.254 134.774 102.746 136.957 101.728 138.864C100.711 140.771 99.2978 142.278 97.489 143.385C95.7085 144.462 93.6878 145 91.4269 145ZM91.4269 139.279C92.5291 139.279 93.5183 138.987 94.3944 138.403C95.2705 137.788 95.9488 136.957 96.4292 135.912C96.9379 134.835 97.1923 133.636 97.1923 132.313C97.1923 130.96 96.9379 129.76 96.4292 128.715C95.9488 127.638 95.2705 126.808 94.3944 126.223C93.5183 125.608 92.5291 125.301 91.4269 125.301C90.2964 125.301 89.2931 125.608 88.417 126.223C87.5409 126.838 86.8485 127.669 86.3397 128.715C85.831 129.76 85.5908 130.96 85.6191 132.313C85.5908 133.636 85.831 134.835 86.3397 135.912C86.8485 136.957 87.5409 137.788 88.417 138.403C89.2931 138.987 90.2964 139.279 91.4269 139.279Z" fill="black"/>
<path d="M67.7722 145C65.6243 145 63.7025 144.446 62.0067 143.339C60.311 142.232 58.9686 140.725 57.9794 138.818C57.0185 136.911 56.5381 134.743 56.5381 132.313C56.5381 129.914 57.0185 127.761 57.9794 125.854C58.9686 123.917 60.311 122.394 62.0067 121.287C63.7025 120.18 65.6243 119.626 67.7722 119.626C69.7788 119.626 71.6158 120.026 73.2832 120.826C74.9507 121.625 76.2507 122.732 77.1833 124.147L73.8767 128.484C73.4811 127.9 72.9865 127.377 72.393 126.915C71.7995 126.423 71.1494 126.039 70.4429 125.762C69.7646 125.485 69.0581 125.347 68.3233 125.347C67.1645 125.347 66.133 125.654 65.2286 126.269C64.3525 126.854 63.6601 127.669 63.1514 128.715C62.6426 129.76 62.3883 130.96 62.3883 132.313C62.3883 133.636 62.6426 134.82 63.1514 135.865C63.6883 136.88 64.409 137.711 65.3134 138.357C66.2178 138.972 67.2352 139.279 68.3657 139.279C69.1005 139.279 69.7929 139.172 70.4429 138.956C71.0929 138.71 71.7006 138.357 72.2658 137.895C72.8593 137.434 73.3963 136.88 73.8767 136.235L77.141 140.571C76.1801 141.894 74.8517 142.97 73.156 143.801C71.4603 144.6 69.6657 145 67.7722 145Z" fill="black"/>
<path d="M43.7069 144.539V113.951H49.7267V144.539H43.7069ZM39.51 125.992V120.133H54.3051V125.992H39.51Z" fill="black"/>
<path d="M29.0957 144.539V120.133H35.1154V144.539H29.0957ZM32.0632 115.105C30.9044 115.105 30.0001 114.797 29.35 114.182C28.7 113.567 28.375 112.69 28.375 111.552C28.375 110.507 28.7 109.661 29.35 109.015C30.0283 108.338 30.9327 108 32.0632 108C33.2219 108 34.1263 108.323 34.7763 108.969C35.4263 109.584 35.7513 110.445 35.7513 111.552C35.7513 112.629 35.4122 113.49 34.7339 114.136C34.0839 114.782 33.1936 115.105 32.0632 115.105Z" fill="black"/>
<path d="M0 144.539V112.244H12.8874C14.8657 112.244 16.5332 112.567 17.8897 113.213C19.2746 113.828 20.3202 114.736 21.0268 115.935C21.7333 117.135 22.0866 118.565 22.0866 120.226C22.0866 122.071 21.6627 123.609 20.8148 124.839C19.967 126.069 18.7517 126.915 17.1691 127.376L17.1267 126.454C18.4267 126.792 19.5713 127.346 20.5605 128.115C21.5496 128.884 22.3127 129.837 22.8497 130.975C23.3867 132.113 23.6551 133.405 23.6551 134.85C23.6551 136.45 23.4149 137.864 22.9345 139.095C22.454 140.294 21.7475 141.294 20.8148 142.093C19.8822 142.893 18.78 143.508 17.5082 143.939C16.2647 144.339 14.8657 144.539 13.3113 144.539H0ZM6.10455 138.541H13.057C13.9613 138.541 14.7244 138.403 15.3462 138.126C15.9962 137.818 16.4908 137.357 16.8299 136.742C17.1691 136.127 17.3386 135.404 17.3386 134.573C17.3386 133.774 17.1549 133.097 16.7875 132.544C16.4201 131.99 15.8973 131.575 15.219 131.298C14.569 130.99 13.7776 130.837 12.845 130.837H6.10455V138.541ZM6.10455 125.347H12.1243C12.8874 125.347 13.5515 125.193 14.1168 124.885C14.682 124.578 15.1059 124.162 15.3886 123.64C15.6994 123.117 15.8549 122.502 15.8549 121.794C15.8549 120.656 15.5157 119.78 14.8375 119.165C14.1592 118.549 13.1417 118.242 11.7852 118.242H6.10455V125.347Z" fill="black"/>
<defs>
<linearGradient id="paint0_linear_177_130" x1="86.2954" y1="49.9002" x2="134.686" y2="47.3732" gradientUnits="userSpaceOnUse">
<stop stop-color="#8940FF"/>
<stop offset="1" stop-color="#8940FF" stop-opacity="0"/>
</linearGradient>
</defs>
</svg>
